<svg width="204" height="27" fill="none" xmlns="http://www.w3.org/2000/svg"><path d="M19.2 18a.4.4 0 0 1-.26-.1.4.4 0 0 1-.1-.27v-9.4h-3.07a.4.4 0 0 1-.27-.1.4.4 0 0 1-.1-.27v-.68c0-.1.03-.2.1-.27a.37.37 0 0 1 .27-.11h7.71c.12 0 .2.04.27.11.08.07.11.16.11.27v.68c0 .1-.03.2-.1.27a.4.4 0 0 1-.28.1h-3.06v9.4c0 .1-.03.2-.1.27a.4.4 0 0 1-.28.1h-.83Zm9.58.16c-1.1 0-1.98-.34-2.64-1-.65-.7-1.01-1.62-1.07-2.8l-.02-.54.02-.52a4.24 4.24 0 0 1 1.08-2.76 3.47 3.47 0 0 1 2.61-1.02c1.19 0 2.1.38 2.75 1.14.65.74.98 1.76.98 3.04v.27c0 .1-.04.2-.11.27a.35.35 0 0 1-.26.1H26.6v.14c.03.7.24 1.29.62 1.78.4.48.91.72 1.55.72a2.25 2.25 0 0 0 1.9-.92c.1-.12.17-.2.21-.22a.56.56 0 0 1 .28-.05h.78c.1 0 .18.03.24.08.06.06.1.13.1.23 0 .23-.15.51-.45.84-.29.33-.7.62-1.23.87-.53.23-1.13.35-1.81.35Zm2.19-4.93v-.05c0-.73-.2-1.33-.6-1.79-.4-.47-.94-.7-1.6-.7-.68 0-1.21.23-1.6.7a2.7 2.7 0 0 0-.58 1.8v.04h4.38ZM33.94 18c-.1 0-.2-.04-.27-.11a.37.37 0 0 1-.11-.27v-.6c0-.1.03-.19.1-.25.06-.07.14-.1.23-.1.51-.02.9-.38 1.14-1.09.25-.71.38-1.87.38-3.48v-2.05c0-.1.03-.2.1-.26a.37.37 0 0 1 .27-.11h5.09c.1 0 .19.04.25.11.08.07.12.15.12.26v7.58c0 .1-.04.2-.12.27a.35.35 0 0 1-.25.1h-.77c-.1 0-.2-.03-.26-.1a.4.4 0 0 1-.1-.27v-6.67h-2.87v1.31c0 2.04-.24 3.5-.7 4.4A2.35 2.35 0 0 1 33.93 18Zm9.94 0a.4.4 0 0 1-.27-.1.4.4 0 0 1-.1-.27v-1.15c0-.1.03-.2.1-.26a.37.37 0 0 1 .27-.1h1.15c.1 0 .2.03.27.1.08.07.11.15.11.26v1.15c0 .1-.03.2-.1.27a.4.4 0 0 1-.28.1h-1.15Zm4.06-5.6a.4.4 0 0 1-.27-.1.4.4 0 0 1-.1-.27v-1.12c0-.1.03-.19.1-.25a.37.37 0 0 1 .27-.12h1.15c.1 0 .2.04.26.12.07.06.11.15.11.25v1.12c0 .1-.04.2-.11.27a.35.35 0 0 1-.26.1h-1.15Zm0 5.6a.4.4 0 0 1-.27-.1.4.4 0 0 1-.1-.27v-1.12c0-.1.03-.19.1-.25a.37.37 0 0 1 .27-.12h1.15c.1 0 .2.04.26.12.07.06.11.15.11.25v1.12c0 .1-.04.2-.11.27a.35.35 0 0 1-.26.1h-1.15Zm11.23-.53a.4.4 0 0 1-.27-.1.4.4 0 0 1-.1-.27v-3.32h-3.28a.4.4 0 0 1-.27-.1.4.4 0 0 1-.1-.27v-.51c0-.11.04-.2.1-.26a.37.37 0 0 1 .27-.11h3.28V9.3c0-.11.04-.2.1-.26a.37.37 0 0 1 .27-.11h.56c.1 0 .2.04.26.11.07.06.11.15.11.26v3.23h3.3c.1 0 .19.04.25.11.08.06.11.15.11.26v.5c0 .11-.03.2-.1.28a.35.35 0 0 1-.26.1h-3.3v3.32c0 .11-.04.2-.11.28a.35.35 0 0 1-.26.1h-.56Zm6.8.53a.33.33 0 0 1-.23-.1.43.43 0 0 1-.08-.25l.03-.15 3.98-9.3h-5.24a.4.4 0 0 1-.28-.1.4.4 0 0 1-.1-.28v-.64c0-.11.04-.2.1-.27a.37.37 0 0 1 .28-.11h6.56c.11 0 .2.04.27.11s.11.16.11.27v.6c0 .19-.04.4-.13.62l-3.93 9.2a.97.97 0 0 1-.2.29.34.34 0 0 1-.27.11h-.86Zm14.4 2.54c-.91 0-1.65-.26-2.2-.78a4.72 4.72 0 0 1-1.19-2.42 21.07 21.07 0 0 1-.35-4.28c0-1.77.12-3.2.35-4.3a4.61 4.61 0 0 1 1.19-2.4c.55-.51 1.29-.78 2.2-.78.11 0 .2.04.26.12.08.06.11.15.11.25v.56c0 .1-.03.18-.1.26a.29.29 0 0 1-.22.11c-.6.01-1.08.21-1.42.6-.34.4-.59 1.04-.74 1.93-.15.88-.22 2.1-.22 3.65 0 1.54.07 2.76.22 3.64.15.89.4 1.53.74 1.92.34.4.81.62 1.42.63.09 0 .16.04.23.11.06.07.1.16.1.26v.56c0 .1-.04.19-.12.25a.32.32 0 0 1-.26.11Zm5.44-2.38c-.84 0-1.57-.13-2.2-.4a3.4 3.4 0 0 1-1.47-1.18 3.09 3.09 0 0 1-.53-1.8 3.03 3.03 0 0 1 1.73-2.75 2.68 2.68 0 0 1-.99-.96c-.22-.4-.34-.87-.34-1.4 0-.94.35-1.68 1.03-2.21.7-.55 1.61-.82 2.77-.82 1.14 0 2.05.27 2.73.82.7.53 1.04 1.26 1.04 2.19a2.71 2.71 0 0 1-1.31 2.38A2.93 2.93 0 0 1 90 14.78c0 .69-.18 1.28-.53 1.8-.35.5-.85.9-1.49 1.18-.63.27-1.35.4-2.17.4Zm0-6.7a2.74 2.74 0 0 0 1.61-.5c.44-.32.66-.74.66-1.26 0-.54-.22-.96-.66-1.28-.42-.33-.96-.5-1.61-.5-.66 0-1.21.16-1.65.48-.43.32-.64.75-.64 1.3 0 .53.21.96.64 1.28.44.32.99.48 1.65.48Zm0 5.42c.74 0 1.37-.2 1.87-.58.5-.38.75-.89.75-1.52s-.25-1.13-.75-1.5a3.05 3.05 0 0 0-1.87-.56c-.76 0-1.39.19-1.9.56-.5.37-.74.87-.74 1.5s.25 1.14.75 1.52c.5.39 1.13.58 1.89.58ZM95.3 18a.4.4 0 0 1-.28-.1.4.4 0 0 1-.1-.27V8.67l-2.65 2.05a.36.36 0 0 1-.24.1c-.1 0-.18-.06-.27-.16l-.42-.53a.38.38 0 0 1-.08-.23c0-.12.06-.23.16-.3l3.5-2.69a.76.76 0 0 1 .4-.11h.82c.11 0 .2.04.26.11.08.07.11.15.11.26v10.46c0 .1-.03.2-.1.27a.35.35 0 0 1-.27.1h-.84Zm3.58 0a.4.4 0 0 1-.28-.1.4.4 0 0 1-.1-.27v-.51c0-.25.14-.48.4-.7l3.4-3.4c.82-.68 1.39-1.23 1.7-1.66.3-.44.46-.9.46-1.38 0-.61-.18-1.1-.53-1.45-.34-.35-.84-.53-1.5-.53-.62 0-1.12.19-1.49.56-.37.36-.6.85-.69 1.46a.43.43 0 0 1-.16.28.43.43 0 0 1-.25.08H99a.36.36 0 0 1-.24-.08.3.3 0 0 1-.1-.22c.03-.58.18-1.13.47-1.65.29-.53.71-.96 1.27-1.3a3.86 3.86 0 0 1 2.03-.5c1.2 0 2.11.3 2.72.94.62.62.93 1.4.93 2.37 0 .67-.17 1.28-.52 1.82-.33.53-.84 1.1-1.55 1.73l-3.07 3.12h5c.11 0 .2.04.26.11.08.06.12.15.12.26v.65c0 .1-.04.2-.12.27a.4.4 0 0 1-.27.1H98.9Zm8.75 2.54a.35.35 0 0 1-.25-.1.32.32 0 0 1-.11-.26v-.56c0-.1.03-.19.1-.26a.33.33 0 0 1 .23-.11c.6-.01 1.07-.22 1.4-.63.36-.4.61-1.03.76-1.92.15-.88.23-2.1.23-3.64 0-1.55-.08-2.77-.23-3.65a3.86 3.86 0 0 0-.75-1.92c-.34-.4-.81-.6-1.4-.61a.33.33 0 0 1-.25-.11.38.38 0 0 1-.1-.26v-.56c0-.1.04-.19.12-.25a.35.35 0 0 1 .25-.12c.93 0 1.67.27 2.21.79.55.51.93 1.31 1.17 2.4.24 1.08.37 2.5.37 4.29 0 1.78-.13 3.21-.37 4.3a4.61 4.61 0 0 1-1.17 2.4c-.54.52-1.28.78-2.2.78Zm13.68-2.38c-.83 0-1.56-.13-2.19-.4a3.4 3.4 0 0 1-1.47-1.18 3.09 3.09 0 0 1-.53-1.8 2.93 2.93 0 0 1 1.73-2.75 2.69 2.69 0 0 1-1-.96c-.22-.4-.33-.87-.33-1.4 0-.94.34-1.68 1.02-2.21.7-.55 1.62-.82 2.77-.82 1.14 0 2.06.27 2.74.82.7.53 1.04 1.26 1.04 2.19a2.71 2.71 0 0 1-1.31 2.38c.53.26.95.63 1.26 1.1.31.48.46 1.02.46 1.65 0 .69-.17 1.28-.52 1.8-.36.5-.85.9-1.5 1.18-.62.27-1.35.4-2.17.4Zm0-6.7a2.74 2.74 0 0 0 1.62-.5c.44-.32.65-.74.65-1.26 0-.54-.21-.96-.65-1.28-.43-.33-.97-.5-1.62-.5-.66 0-1.2.16-1.65.48-.42.32-.64.75-.64 1.3 0 .53.22.96.64 1.28.44.32 1 .48 1.65.48Zm0 5.42c.75 0 1.37-.2 1.87-.58.5-.38.76-.89.76-1.52s-.25-1.13-.76-1.5a3.05 3.05 0 0 0-1.87-.56c-.75 0-1.38.19-1.89.56-.5.37-.75.87-.75 1.5s.25 1.14.75 1.52c.5.39 1.13.58 1.9.58Zm9.5 1.12a.4.4 0 0 1-.27-.1.4.4 0 0 1-.1-.27V8.67l-2.65 2.05a.36.36 0 0 1-.24.1c-.1 0-.19-.06-.27-.16l-.42-.53a.39.39 0 0 1-.08-.23c0-.12.05-.23.16-.3l3.49-2.69a.76.76 0 0 1 .41-.11h.82c.1 0 .2.04.26.11.07.07.1.15.1.26v10.46c0 .1-.03.2-.1.27a.35.35 0 0 1-.26.1h-.85Zm3.58 0a.4.4 0 0 1-.27-.1.4.4 0 0 1-.1-.27v-.51c0-.25.14-.48.4-.7l3.4-3.4c.82-.68 1.38-1.23 1.7-1.66.3-.44.46-.9.46-1.38 0-.61-.18-1.1-.53-1.45-.34-.35-.84-.53-1.5-.53-.63 0-1.12.19-1.5.56-.37.36-.6.85-.68 1.46a.43.43 0 0 1-.16.28.43.43 0 0 1-.26.08h-.83a.36.36 0 0 1-.24-.08.3.3 0 0 1-.1-.22c.03-.58.18-1.13.47-1.65.29-.53.7-.96 1.26-1.3a3.86 3.86 0 0 1 2.03-.5c1.2 0 2.12.3 2.72.94.62.62.93 1.4.93 2.37 0 .67-.17 1.28-.51 1.82-.33.53-.85 1.1-1.55 1.73l-3.07 3.12h4.99c.11 0 .2.04.27.11.08.06.11.15.11.26v.65c0 .1-.03.2-.11.27a.4.4 0 0 1-.27.1h-7.06Zm9.32-4.13a.4.4 0 0 1-.27-.1.4.4 0 0 1-.1-.27v-.6c0-.11.04-.2.1-.26a.37.37 0 0 1 .27-.11h4.8c.1 0 .2.04.26.11.07.06.11.15.11.26v.6c0 .11-.04.2-.11.28a.35.35 0 0 1-.26.1h-4.8Zm10.1 4.13a.4.4 0 0 1-.27-.1.4.4 0 0 1-.1-.27V8.67l-2.65 2.05a.36.36 0 0 1-.24.1c-.1 0-.19-.06-.27-.16l-.42-.53a.39.39 0 0 1-.08-.23c0-.12.05-.23.16-.3l3.49-2.69a.76.76 0 0 1 .41-.11h.82c.1 0 .2.04.26.11.07.07.1.15.1.26v10.46c0 .1-.03.2-.1.27a.35.35 0 0 1-.26.1h-.85Zm3.58 0a.4.4 0 0 1-.27-.1.4.4 0 0 1-.1-.27v-.51c0-.25.14-.48.4-.7l3.4-3.4c.82-.68 1.38-1.23 1.7-1.66.3-.44.46-.9.46-1.38 0-.61-.18-1.1-.53-1.45-.34-.35-.84-.53-1.5-.53-.63 0-1.12.19-1.5.56-.37.36-.6.85-.68 1.46a.43.43 0 0 1-.16.28.43.43 0 0 1-.26.08h-.83a.36.36 0 0 1-.24-.08.3.3 0 0 1-.1-.22c.03-.58.18-1.13.47-1.65.29-.53.7-.96 1.26-1.3a3.86 3.86 0 0 1 2.03-.5c1.2 0 2.12.3 2.72.94.62.62.93 1.4.93 2.37 0 .67-.17 1.28-.51 1.82-.33.53-.85 1.1-1.55 1.73l-3.07 3.12h4.99c.11 0 .2.04.27.11.08.06.11.15.11.26v.65c0 .1-.03.2-.11.27a.4.4 0 0 1-.27.1h-7.06Zm9.32-4.13a.4.4 0 0 1-.27-.1.4.4 0 0 1-.1-.27v-.6c0-.11.04-.2.1-.26a.37.37 0 0 1 .27-.11h4.8c.1 0 .2.04.26.11.07.06.11.15.11.26v.6c0 .11-.04.2-.11.28a.35.35 0 0 1-.26.1h-4.8Zm10.1 4.13a.4.4 0 0 1-.27-.1.4.4 0 0 1-.1-.27V8.67l-2.65 2.05a.36.36 0 0 1-.24.1c-.1 0-.19-.06-.27-.16l-.42-.53a.39.39 0 0 1-.08-.23c0-.12.05-.23.16-.3l3.49-2.69a.76.76 0 0 1 .41-.11h.82c.1 0 .2.04.26.11.07.07.1.15.1.26v10.46c0 .1-.03.2-.1.27a.35.35 0 0 1-.26.1h-.85Zm3.58 0a.4.4 0 0 1-.27-.1.4.4 0 0 1-.1-.27v-.51c0-.25.14-.48.4-.7l3.4-3.4c.82-.68 1.38-1.23 1.7-1.66.3-.44.46-.9.46-1.38 0-.61-.18-1.1-.53-1.45-.34-.35-.84-.53-1.5-.53-.63 0-1.12.19-1.5.56-.37.36-.6.85-.68 1.46a.43.43 0 0 1-.16.28.43.43 0 0 1-.26.08h-.83a.36.36 0 0 1-.24-.08.3.3 0 0 1-.1-.22c.03-.58.18-1.13.47-1.65.29-.53.7-.96 1.26-1.3a3.86 3.86 0 0 1 2.03-.5c1.2 0 2.12.3 2.72.94.62.62.93 1.4.93 2.37 0 .67-.17 1.28-.51 1.82-.33.53-.85 1.1-1.55 1.73l-3.07 3.12h4.99c.11 0 .2.04.27.11.08.06.11.15.11.26v.65c0 .1-.03.2-.11.27a.4.4 0 0 1-.27.1h-7.06Z" fill="#fff"/><rect x="1" y="1" width="202" height="25" rx="12.5" stroke="#AF4FFF" stroke-width="2"/></svg>