<svg width="223" height="27" fill="none" xmlns="http://www.w3.org/2000/svg"><path d="M16.76 18a.4.4 0 0 1-.27-.1.4.4 0 0 1-.1-.27V7.18c0-.11.03-.2.1-.27a.37.37 0 0 1 .27-.11h4.38c1.15 0 2 .27 2.58.82.58.54.86 1.25.86 2.14a2.53 2.53 0 0 1-1.37 2.35 2.93 2.93 0 0 1 1.6 2.66c0 .6-.14 1.14-.42 1.63-.26.5-.66.88-1.2 1.17-.53.29-1.17.43-1.92.43h-4.51Zm4.14-6.46c.68 0 1.19-.16 1.54-.47.36-.3.54-.74.54-1.3 0-.54-.17-.95-.52-1.24-.36-.29-.87-.43-1.56-.43h-2.94v3.44h2.94Zm.16 5.16c.68 0 1.2-.18 1.57-.54.39-.36.58-.83.58-1.4 0-.58-.2-1.05-.58-1.4-.37-.36-.9-.54-1.57-.54h-3.1v3.88h3.1Zm12.88-7.02a.3.3 0 0 1 .23.1c.07.06.1.13.1.22v7.63c0 .1-.03.2-.1.27a.35.35 0 0 1-.26.1h-.75a.4.4 0 0 1-.27-.1.4.4 0 0 1-.1-.27v-5.8l-4.43 5.93c-.12.16-.26.24-.42.24h-.72a.38.38 0 0 1-.25-.1.36.36 0 0 1-.1-.24v-7.61c0-.1.03-.2.1-.26a.37.37 0 0 1 .27-.11H28c.1 0 .19.04.25.11.08.07.12.15.12.26v5.77l4.41-5.9c.12-.16.26-.24.42-.24h.73Zm3.07 11.36c-.11 0-.2-.04-.28-.11a.35.35 0 0 1-.1-.26V10.05c0-.1.04-.2.1-.26a.37.37 0 0 1 .28-.11h.73c.1 0 .2.04.26.11.07.07.1.15.1.26v.7a3.04 3.04 0 0 1 2.63-1.23c1.12 0 1.96.35 2.52 1.06.56.7.86 1.6.9 2.72a6.62 6.62 0 0 1 0 1.08c-.04 1.1-.34 2-.9 2.72-.57.7-1.4 1.06-2.52 1.06-1.1 0-1.97-.4-2.59-1.2v3.71c0 .1-.03.2-.1.26a.32.32 0 0 1-.25.11H37Zm3.39-4.18c.75 0 1.3-.23 1.65-.7.35-.47.54-1.09.57-1.86l.02-.46c0-2.02-.75-3.02-2.24-3.02-.74 0-1.3.24-1.67.73a3.03 3.03 0 0 0-.59 1.73l-.01.6.01.63c.02.63.23 1.18.6 1.65a2 2 0 0 0 1.66.7ZM48.7 18a.4.4 0 0 1-.28-.1.4.4 0 0 1-.1-.27v-6.67h-2.78a.4.4 0 0 1-.27-.1.4.4 0 0 1-.1-.27v-.54c0-.1.04-.2.1-.26a.37.37 0 0 1 .27-.11h7.04c.11 0 .2.04.26.11.08.07.11.15.11.26v.54c0 .1-.03.2-.1.27a.35.35 0 0 1-.27.1H49.8v6.67c0 .1-.03.2-.1.27a.35.35 0 0 1-.25.1h-.75Zm12.47-8.32a.3.3 0 0 1 .23.1c.06.06.1.13.1.22 0 .07-.03.17-.09.29l-3.04 7.2-.14.32c-.28.67-.54 1.22-.77 1.66-.23.44-.53.8-.88 1.1-.35.32-.77.47-1.25.47h-.6a.4.4 0 0 1-.28-.1c-.06-.06-.1-.15-.1-.27v-.54c0-.1.04-.2.1-.27a.4.4 0 0 1 .27-.1h.42c.23 0 .43-.05.58-.14.15-.09.28-.24.4-.45.12-.22.28-.54.46-.98l.27-.65-3.13-7.25a1.03 1.03 0 0 1-.08-.27c0-.1.04-.18.1-.24a.3.3 0 0 1 .23-.1h.75c.19 0 .32.1.4.27l2.45 5.87 2.48-5.87a.4.4 0 0 1 .4-.27h.72Zm4.26 8.48c-.53 0-1.01-.1-1.46-.32-.45-.21-.8-.5-1.07-.86a2.13 2.13 0 0 1-.39-1.24c0-.7.3-1.28.87-1.72a4.88 4.88 0 0 1 2.37-.9l2.38-.34v-.46c0-1.09-.62-1.63-1.87-1.63a2.01 2.01 0 0 0-1.83.99.44.44 0 0 1-.12.2c-.05.05-.11.07-.2.07h-.68a.38.38 0 0 1-.26-.1.38.38 0 0 1-.1-.25c.01-.26.13-.54.36-.86.23-.33.59-.62 1.07-.85a3.87 3.87 0 0 1 1.77-.37c1.2 0 2.06.28 2.58.85.52.55.78 1.25.78 2.08v5.18c0 .1-.03.2-.1.27a.35.35 0 0 1-.26.1h-.74a.4.4 0 0 1-.27-.1.4.4 0 0 1-.1-.27v-.69c-.23.35-.57.63-1.02.87-.45.23-1.02.35-1.71.35Zm.33-1.2c.7 0 1.26-.22 1.7-.67.45-.46.67-1.12.67-1.97v-.45l-1.86.27a4.2 4.2 0 0 0-1.7.55c-.4.24-.58.56-.58.94 0 .43.17.76.52 1 .36.22.77.33 1.25.33ZM71.53 18c-.1 0-.2-.04-.27-.11a.37.37 0 0 1-.11-.27v-.6c0-.1.03-.19.1-.25.06-.07.14-.1.24-.1.5-.02.89-.38 1.13-1.09.26-.71.39-1.87.39-3.48v-2.05c0-.1.03-.2.1-.26a.37.37 0 0 1 .26-.11h5.1c.1 0 .18.04.25.11s.11.15.11.26v7.58c0 .1-.04.2-.11.27a.35.35 0 0 1-.26.1h-.77c-.1 0-.19-.03-.25-.1a.4.4 0 0 1-.1-.27v-6.67h-2.88v1.31c0 2.04-.23 3.5-.7 4.4A2.35 2.35 0 0 1 71.53 18Zm10.05 0a.4.4 0 0 1-.27-.1.4.4 0 0 1-.1-.27v-7.58c0-.1.04-.2.1-.26a.37.37 0 0 1 .27-.11h.77c.1 0 .2.04.26.11.07.07.1.15.1.26v2.35h1.8c1.06 0 1.84.25 2.35.75.53.5.79 1.2.79 2.1 0 .94-.28 1.63-.83 2.08-.55.45-1.38.67-2.5.67h-2.74Zm2.8-1.2c.65 0 1.12-.12 1.41-.35.3-.24.45-.64.45-1.2 0-.57-.15-.98-.45-1.25-.29-.27-.76-.4-1.4-.4H82.7v3.2h1.68ZM89.6 18a.4.4 0 0 1-.27-.1.4.4 0 0 1-.1-.27v-7.58c0-.1.03-.2.1-.26a.37.37 0 0 1 .27-.11h.77c.1 0 .19.04.25.11.08.07.11.15.11.26v3.07h4.36v-3.07c0-.1.03-.2.1-.26a.37.37 0 0 1 .26-.11h.76c.1 0 .19.04.25.11.08.07.11.15.11.26v7.58c0 .1-.03.2-.1.27a.35.35 0 0 1-.26.1h-.76a.4.4 0 0 1-.27-.1.4.4 0 0 1-.1-.27V14.4h-4.35v3.23c0 .1-.03.2-.1.27a.35.35 0 0 1-.26.1h-.77Zm11.7.16c-.52 0-1-.1-1.46-.32-.44-.21-.8-.5-1.07-.86a2.13 2.13 0 0 1-.38-1.24c0-.7.29-1.28.86-1.72a4.88 4.88 0 0 1 2.37-.9l2.38-.34v-.46c0-1.09-.62-1.63-1.87-1.63a2.01 2.01 0 0 0-1.82.99.44.44 0 0 1-.13.2c-.04.05-.1.07-.2.07h-.68a.38.38 0 0 1-.26-.1.38.38 0 0 1-.1-.25c.02-.26.14-.54.36-.86.24-.33.6-.62 1.07-.85a3.87 3.87 0 0 1 1.78-.37c1.2 0 2.05.28 2.57.85.53.55.79 1.25.79 2.08v5.18c0 .1-.04.2-.11.27a.35.35 0 0 1-.26.1h-.73a.4.4 0 0 1-.28-.1.4.4 0 0 1-.1-.27v-.69c-.23.35-.57.63-1.02.87-.45.23-1.02.35-1.7.35Zm.34-1.2c.69 0 1.26-.22 1.7-.67.44-.46.66-1.12.66-1.97v-.45l-1.85.27a4.2 4.2 0 0 0-1.71.55c-.39.24-.58.56-.58.94 0 .43.18.76.53 1 .35.22.77.33 1.25.33Zm12.12-7.28c.1 0 .2.04.26.11.07.07.1.15.1.26v7.58c0 .1-.03.2-.1.27a.35.35 0 0 1-.26.1H113a.4.4 0 0 1-.27-.1.4.4 0 0 1-.1-.27v-2.6h-1.7l-1.81 2.73a.69.69 0 0 1-.18.18.48.48 0 0 1-.24.06h-.77a.33.33 0 0 1-.24-.1.3.3 0 0 1-.1-.22c0-.1.04-.2.12-.29l1.79-2.64c-.56-.19-.97-.5-1.25-.91a2.76 2.76 0 0 1-.41-1.54c0-.9.26-1.55.78-1.98.53-.43 1.33-.64 2.4-.64h2.75Zm-1.12 1.2h-1.68c-.6 0-1.05.1-1.33.32-.27.21-.41.58-.41 1.1 0 .46.13.83.4 1.1.27.29.68.42 1.21.42h1.81v-2.94Zm8.2 10.16c-.11 0-.2-.04-.28-.11a.35.35 0 0 1-.1-.26V10.05c0-.1.04-.2.1-.26a.37.37 0 0 1 .27-.11h.74c.1 0 .2.04.26.11.07.07.1.15.1.26v.7a3.04 3.04 0 0 1 2.63-1.23c1.12 0 1.96.35 2.51 1.06.57.7.87 1.6.92 2.72a6.96 6.96 0 0 1 0 1.08c-.05 1.1-.35 2-.92 2.72-.56.7-1.4 1.06-2.5 1.06-1.12 0-1.98-.4-2.6-1.2v3.71c0 .1-.03.2-.1.26a.32.32 0 0 1-.25.11h-.79Zm3.39-4.18c.75 0 1.3-.23 1.64-.7.36-.47.55-1.09.58-1.86l.02-.46c0-2.02-.75-3.02-2.24-3.02-.74 0-1.3.24-1.67.73a3.03 3.03 0 0 0-.59 1.73l-.02.6.02.63c.02.63.22 1.18.6 1.65a2 2 0 0 0 1.66.7Zm9.08 1.3c-1.1 0-1.98-.34-2.64-1-.65-.7-1-1.62-1.07-2.8l-.02-.54.02-.52a4.24 4.24 0 0 1 1.09-2.76 3.47 3.47 0 0 1 2.6-1.02c1.19 0 2.1.38 2.75 1.14.66.74.98 1.76.98 3.04v.27c0 .1-.04.2-.11.27a.35.35 0 0 1-.26.1h-5.53v.14c.03.7.24 1.29.62 1.78.4.48.91.72 1.55.72a2.24 2.24 0 0 0 1.9-.92c.1-.12.17-.2.22-.22a.56.56 0 0 1 .27-.05h.78c.1 0 .18.03.24.08.06.06.1.13.1.23 0 .23-.15.51-.45.84-.29.33-.7.62-1.23.87-.53.23-1.13.35-1.81.35Zm2.2-4.93v-.05c0-.73-.21-1.33-.62-1.79-.4-.47-.92-.7-1.6-.7-.67 0-1.2.23-1.6.7a2.7 2.7 0 0 0-.57 1.8v.04h4.38Zm5.74 4.93c-.52 0-1-.1-1.45-.32-.45-.21-.8-.5-1.07-.86a2.13 2.13 0 0 1-.39-1.24c0-.7.29-1.28.87-1.72a4.88 4.88 0 0 1 2.36-.9l2.39-.34v-.46c0-1.09-.63-1.63-1.87-1.63a2.01 2.01 0 0 0-1.83.99.44.44 0 0 1-.13.2c-.04.05-.1.07-.19.07h-.69a.38.38 0 0 1-.25-.1.38.38 0 0 1-.1-.25c.01-.26.13-.54.35-.86.24-.33.6-.62 1.08-.85a3.87 3.87 0 0 1 1.77-.37c1.2 0 2.06.28 2.58.85.52.55.78 1.25.78 2.08v5.18c0 .1-.03.2-.11.27a.35.35 0 0 1-.26.1h-.73a.4.4 0 0 1-.27-.1.4.4 0 0 1-.1-.27v-.69c-.24.35-.58.63-1.02.87-.45.23-1.02.35-1.72.35Zm.34-1.2c.7 0 1.26-.22 1.7-.67.44-.46.67-1.12.67-1.97v-.45l-1.86.27a4.2 4.2 0 0 0-1.71.55c-.38.24-.58.56-.58.94 0 .43.18.76.53 1 .35.22.77.33 1.25.33Zm5.77 1.04c-.1 0-.2-.04-.27-.11a.37.37 0 0 1-.11-.27v-.6c0-.1.03-.19.1-.25.06-.07.14-.1.23-.1.52-.02.9-.38 1.14-1.09.26-.71.38-1.87.38-3.48v-2.05c0-.1.04-.2.1-.26a.37.37 0 0 1 .27-.11h5.09c.1 0 .2.04.26.11.07.07.1.15.1.26v7.58c0 .1-.03.2-.1.27a.35.35 0 0 1-.26.1h-.77c-.1 0-.19-.03-.25-.1a.4.4 0 0 1-.1-.27v-6.67h-2.88v1.31c0 2.04-.23 3.5-.7 4.4a2.35 2.35 0 0 1-2.23 1.33Zm10.05 0a.4.4 0 0 1-.27-.1.4.4 0 0 1-.1-.27v-7.58c0-.1.03-.2.1-.26a.37.37 0 0 1 .27-.11h.77c.1 0 .2.04.25.11.08.07.12.15.12.26v2.35h1.79c1.06 0 1.84.25 2.35.75.52.5.78 1.2.78 2.1 0 .94-.27 1.63-.83 2.08-.54.45-1.37.67-2.5.67h-2.73Zm2.8-1.2c.65 0 1.12-.12 1.4-.35.3-.24.46-.64.46-1.2 0-.57-.15-.98-.45-1.25-.29-.27-.76-.4-1.4-.4h-1.69v3.2h1.68Zm5.22 1.2a.4.4 0 0 1-.28-.1.4.4 0 0 1-.1-.27v-7.58c0-.1.04-.2.1-.26a.37.37 0 0 1 .28-.11h.76c.11 0 .2.04.26.11.08.07.11.15.11.26v3.07h4.35v-3.07c0-.1.04-.2.1-.26a.37.37 0 0 1 .27-.11h.75c.11 0 .2.04.26.11.08.07.11.15.11.26v7.58c0 .1-.03.2-.1.27a.35.35 0 0 1-.27.1h-.75a.4.4 0 0 1-.27-.1.4.4 0 0 1-.1-.27V14.4h-4.35v3.23c0 .1-.03.2-.1.27a.35.35 0 0 1-.27.1h-.76Zm12.79.16a3.67 3.67 0 0 1-2.74-1 3.86 3.86 0 0 1-1.02-2.63l-.02-.69.02-.69a3.8 3.8 0 0 1 1.04-2.62c.65-.67 1.55-1.01 2.72-1.01 1.16 0 2.07.34 2.72 1 .65.67 1 1.54 1.04 2.63a9.17 9.17 0 0 1 0 1.38 3.82 3.82 0 0 1-1.04 2.64c-.64.66-1.55.99-2.72.99Zm0-1.23c.67 0 1.2-.22 1.58-.64.4-.43.6-1.04.64-1.84a7.26 7.26 0 0 0 0-1.22 2.78 2.78 0 0 0-.64-1.84 2.02 2.02 0 0 0-1.58-.64c-.68 0-1.2.22-1.6.64-.4.43-.6 1.04-.63 1.84l-.01.61.01.6c.02.8.23 1.42.63 1.85.4.42.92.64 1.6.64Zm9.14 1.23a3.67 3.67 0 0 1-2.7-.96 3.93 3.93 0 0 1-1.01-2.72l-.02-.64.02-.64a3.87 3.87 0 0 1 1.02-2.7 3.63 3.63 0 0 1 2.69-.98c.76 0 1.41.14 1.95.42.53.27.93.61 1.18 1.02.27.4.41.81.44 1.22 0 .1-.03.19-.1.25a.4.4 0 0 1-.27.1h-.77c-.1 0-.19-.02-.24-.07a.65.65 0 0 1-.16-.25 2.06 2.06 0 0 0-.77-1.09 2.18 2.18 0 0 0-1.25-.34c-.66 0-1.19.21-1.58.63-.38.4-.6 1.03-.63 1.87l-.01.58.01.54c.04.85.25 1.48.63 1.89.38.4.91.6 1.58.6.5 0 .92-.1 1.25-.31.33-.23.59-.6.77-1.1.05-.14.1-.22.16-.26.05-.06.13-.08.24-.08h.77c.1 0 .2.03.27.1s.1.16.1.26c-.03.4-.17.8-.44 1.22-.25.4-.65.75-1.18 1.02-.52.28-1.18.42-1.95.42Zm8-.16a.4.4 0 0 1-.26-.1.4.4 0 0 1-.1-.27v-6.67h-2.78a.4.4 0 0 1-.28-.1.4.4 0 0 1-.1-.27v-.54c0-.1.04-.2.1-.26a.37.37 0 0 1 .28-.11h7.04c.1 0 .19.04.25.11.08.07.12.15.12.26v.54c0 .1-.04.2-.12.27a.35.35 0 0 1-.25.1h-2.79v6.67c0 .1-.03.2-.1.27a.35.35 0 0 1-.25.1h-.75Zm6.02 0a.4.4 0 0 1-.27-.1.4.4 0 0 1-.1-.27v-7.58c0-.1.03-.2.1-.26a.37.37 0 0 1 .27-.11h.77c.1 0 .19.04.25.11.08.07.12.15.12.26v2.35h1.79c1.05 0 1.84.25 2.35.75.52.5.78 1.2.78 2.1 0 .94-.27 1.63-.83 2.08-.54.45-1.37.67-2.5.67h-2.73Zm2.8-1.2c.65 0 1.12-.12 1.4-.35.3-.24.46-.64.46-1.2 0-.57-.15-.98-.45-1.25-.29-.27-.76-.4-1.41-.4h-1.68v3.2h1.68Z" fill="#000"/><rect x="1" y="1" width="221" height="25" rx="12.5" stroke="#AF4FFF" stroke-width="2"/></svg>